<svg id="Layer_1" data-name="Layer 1" xmlns="http://www.w3.org/2000/svg" viewBox="0 0 163.93 141.28"><defs><style>.cls-1{fill:#232324;}.cls-2{fill:none;stroke:#29faa0;stroke-miterlimit:10;stroke-width:10px;}.cls-3{isolation:isolate;font-size:34.15px;font-family:Poppins-Regular, Poppins;}</style></defs><title>logo</title><path class="cls-1" d="M81.12,103.47A22.14,22.14,0,0,1,61.44,92.38l6.9-4.87Q73.11,95,81.12,95c8.32,0,14.41-6.23,14.41-14.75S89.44,65.66,81.12,65.66q-8,0-12.78,7.51l-6.9-4.87c3.85-7,11.16-11.1,19.75-11.1,13.06-.27,24,10.35,23.75,23.14C105.14,93.09,94.11,103.71,81.12,103.47Z"/><polyline class="cls-2" points="47.46 10.59 5 10.59 5 136.28 47.46 136.28"/><polyline class="cls-2" points="90 136.28 132.47 136.28 132.47 10.59 90 10.59"/><text class="cls-3" transform="translate(144.57 29.13)">2</text><path class="cls-1" d="M75.53,78.2l-6.9-4.87q-4.77,7.52-12.79,7.51c-8.32,0-14.41-6.09-14.41-14.61s6.09-14.76,14.41-14.76a13.92,13.92,0,0,1,10.83,4.9,26.92,26.92,0,0,1,8.23-3.28A22.21,22.21,0,0,0,55.84,43c-13-.27-24,10.35-23.81,23.13-.27,12.79,10.69,23.41,23.74,23.14C64.36,89.3,71.67,85.17,75.53,78.2Z"/></svg>